<svg version="1.1" id="Layer_1" xmlns="http://www.w3.org/2000/svg" xmlns:xlink="http://www.w3.org/1999/xlink" x="0px" y="0px"
	 width="100%" viewBox="0 0 512 512" enable-background="new 0 0 512 512" xml:space="preserve">
<path fill="#010100" opacity="1.000000" stroke="none" 
	d="
M293.000000,513.000000 
	C195.357040,513.000000 98.214073,513.000000 1.035558,513.000000 
	C1.035558,342.398682 1.035558,171.797348 1.035558,1.098012 
	C171.559647,1.098012 342.119354,1.098012 512.839539,1.098012 
	C512.839539,171.666550 512.839539,342.333252 512.839539,513.000000 
	C439.797333,513.000000 366.648651,513.000000 293.000000,513.000000 
M357.828949,44.033493 
	C364.065155,44.713326 368.899292,42.398094 371.989014,36.964237 
	C374.872131,31.893734 374.594696,26.701107 371.147400,22.027952 
	C367.642578,17.276867 362.913849,15.014075 356.112518,16.610859 
	C349.035400,19.163124 345.526306,23.889297 345.720642,30.606922 
	C345.913818,37.283829 349.813416,41.852177 357.828949,44.033493 
M403.896240,497.980316 
	C408.559937,497.986450 413.224548,498.051178 417.887085,497.980530 
	C421.770691,497.921722 424.614075,495.781128 424.716034,492.055664 
	C425.032074,480.507294 424.831573,468.944794 424.831573,457.387756 
	C424.381866,457.112610 423.932159,456.837433 423.482422,456.562286 
	C420.260040,460.078400 416.968292,463.534119 413.836700,467.129333 
	C411.239807,470.110748 408.157257,471.237579 404.168243,471.234558 
	C301.895935,471.157196 199.623566,471.178711 97.351212,471.141022 
	C94.879547,471.140106 92.314850,470.998138 89.952667,470.345795 
	C79.743515,467.526367 74.095306,459.192047 74.094284,447.194092 
	C74.085281,340.757538 74.088737,234.320984 74.088509,127.884430 
	C74.088509,125.803268 74.088509,123.722099 74.088509,121.218155 
	C70.520813,121.389679 67.728966,121.523911 64.093491,121.398811 
	C63.260841,121.375771 62.428272,121.336418 61.595528,121.332115 
	C49.016293,121.267120 48.187572,122.082771 48.187553,134.509766 
	C48.187450,210.174271 48.188454,285.838776 48.185787,361.503296 
	C48.185493,369.860565 47.702953,370.577454 40.238876,373.625366 
	C40.238876,379.951324 40.238876,386.247864 40.238876,392.466492 
	C46.968067,394.464722 48.174644,396.012848 48.179050,402.793152 
	C48.197365,430.959015 48.184494,459.124878 48.189350,487.290741 
	C48.190910,496.336670 49.874584,498.001862 58.985229,498.001953 
	C171.815353,498.002808 284.645477,498.003357 397.475586,497.995483 
	C399.305145,497.995361 401.134705,497.889435 403.896240,497.980316 
M445.873352,389.623169 
	C452.451508,389.623169 459.029694,389.623169 465.814697,389.623169 
	C465.814697,386.840607 465.814697,384.850098 465.814697,382.859558 
	C465.814697,319.598450 465.861267,256.337250 465.744080,193.076370 
	C465.732086,186.609604 465.875763,180.816040 473.811768,180.014481 
	C473.811768,171.610123 473.811768,163.824432 473.811768,156.119583 
	C466.325745,153.164368 465.815216,152.406418 465.812683,144.259964 
	C465.806824,125.614586 465.843201,106.969109 465.791199,88.323875 
	C465.773773,82.077423 463.549225,79.822342 457.451782,79.768860 
	C452.966492,79.729515 448.479248,79.911812 443.076202,79.789467 
	C403.592133,79.776817 364.107849,79.714897 324.624512,79.877251 
	C322.323120,79.886719 319.507050,81.166534 317.819000,82.783028 
	C308.796997,91.422546 300.061432,100.361008 291.218353,109.187622 
	C288.271576,112.128922 285.445190,115.213669 282.299774,117.926819 
	C278.958740,120.808716 274.713745,120.516220 272.012939,117.416580 
	C269.227448,114.219749 269.142639,110.790482 271.875366,107.478935 
	C273.037079,106.071182 274.383514,104.810822 275.690369,103.528702 
	C283.372101,95.992439 291.066895,88.469528 299.674805,80.044067 
	C296.647522,79.900963 295.065948,79.761101 293.484406,79.760826 
	C228.843567,79.749863 164.202728,79.749588 99.561882,79.753647 
	C90.694931,79.754204 89.081573,81.364632 89.081451,90.171646 
	C89.079834,208.624313 89.079971,327.076996 89.081223,445.529663 
	C89.081322,454.674286 90.597710,456.180145 99.815155,456.180298 
	C197.609421,456.181946 295.403687,456.181335 393.197937,456.181366 
	C394.987885,456.181366 396.777832,456.181366 399.039886,456.181366 
	C399.039886,441.662506 399.020386,427.548615 399.045258,413.434784 
	C399.071472,398.576477 407.706573,389.860077 422.519440,389.668243 
	C430.002960,389.571320 437.486176,389.453857 445.873352,389.623169 
M419.108307,440.633514 
	C430.837769,429.012848 442.567230,417.392181 455.316406,404.761230 
	C442.511169,404.761230 431.416351,404.680267 420.323853,404.806732 
	C416.623749,404.848907 414.247101,407.239746 414.176300,410.783478 
	C413.952026,422.010925 414.093445,433.245697 414.093445,445.363037 
	C416.043518,443.533600 417.320984,442.335175 419.108307,440.633514 
z"/>
<path fill="#F5E266" opacity="1.000000" stroke="none" 
	d="
M444.969543,389.345703 
	C437.486176,389.453857 430.002960,389.571320 422.519440,389.668243 
	C407.706573,389.860077 399.071472,398.576477 399.045258,413.434784 
	C399.020386,427.548615 399.039886,441.662506 399.039886,456.181366 
	C396.777832,456.181366 394.987885,456.181366 393.197937,456.181366 
	C295.403687,456.181335 197.609421,456.181946 99.815155,456.180298 
	C90.597710,456.180145 89.081322,454.674286 89.081223,445.529663 
	C89.079971,327.076996 89.079834,208.624313 89.081451,90.171646 
	C89.081573,81.364632 90.694931,79.754204 99.561882,79.753647 
	C164.202728,79.749588 228.843567,79.749863 293.484406,79.760826 
	C295.065948,79.761101 296.647522,79.900963 299.674805,80.044067 
	C291.066895,88.469528 283.372101,95.992439 275.690369,103.528702 
	C274.383514,104.810822 273.037079,106.071182 271.875366,107.478935 
	C269.142639,110.790482 269.227448,114.219749 272.012939,117.416580 
	C274.713745,120.516220 278.958740,120.808716 282.299774,117.926819 
	C285.445190,115.213669 288.271576,112.128922 291.218353,109.187622 
	C300.061432,100.361008 308.796997,91.422546 317.819000,82.783028 
	C319.507050,81.166534 322.323120,79.886719 324.624512,79.877251 
	C364.107849,79.714897 403.592133,79.776817 443.559387,80.313690 
	C444.362061,83.299263 444.959930,85.760521 444.960846,88.221992 
	C444.997314,188.596558 444.980011,288.971130 444.969543,389.345703 
M276.499878,191.766327 
	C319.818390,191.766266 363.136932,191.767609 406.455444,191.764908 
	C414.393646,191.764404 418.119690,189.243790 417.993927,183.984070 
	C417.873505,178.946411 414.404358,176.737137 406.568634,176.736954 
	C320.431396,176.734879 234.294189,176.734818 148.156967,176.741470 
	C146.492737,176.741592 144.800980,176.655182 143.169846,176.912292 
	C139.402863,177.506042 137.246384,179.851700 136.969559,183.627197 
	C136.692627,187.403870 138.455948,190.129883 142.123474,191.174362 
	C144.000717,191.708984 146.064026,191.742493 148.043427,191.743881 
	C190.528885,191.773438 233.014374,191.766327 276.499878,191.766327 
M277.500031,319.116669 
	C234.348587,319.116791 191.197144,319.110077 148.045715,319.138916 
	C146.067841,319.140228 143.992508,319.138428 142.132797,319.700897 
	C138.269409,320.869476 136.483276,323.774872 137.026901,327.752625 
	C137.536591,331.481964 139.869019,333.668091 143.667252,334.054291 
	C145.152786,334.205322 146.663086,334.129059 148.162094,334.129181 
	C191.146957,334.132080 234.131805,334.131531 277.116669,334.131500 
	C320.934570,334.131470 364.752441,334.138367 408.570343,334.123169 
	C414.571533,334.121063 417.876648,331.530884 417.986237,326.897614 
	C418.100433,322.070221 414.618225,319.224976 408.454224,319.120636 
	C407.288300,319.100922 406.121765,319.116699 404.955505,319.116699 
	C362.803680,319.116638 320.651886,319.116669 277.500031,319.116669 
M227.500000,262.966461 
	C287.144501,262.966461 346.789001,262.966766 406.433502,262.966125 
	C414.424347,262.966034 418.101776,260.516388 417.984833,255.278946 
	C417.871704,250.213181 414.376068,247.964066 406.588959,247.963959 
	C320.454285,247.962753 234.319595,247.962936 148.184921,247.965439 
	C146.685883,247.965485 145.162323,247.832153 143.692459,248.048309 
	C139.524719,248.661133 137.032150,251.077545 136.970352,255.370422 
	C136.908096,259.696655 139.448990,262.100800 143.540176,262.857269 
	C144.993530,263.126007 146.530396,262.963257 148.029129,262.963470 
	C174.186081,262.967621 200.343048,262.966461 227.500000,262.966461 
z"/>
<path fill="#E8AF4C" opacity="1.000000" stroke="none" 
	d="
M402.964264,497.832886 
	C401.134705,497.889435 399.305145,497.995361 397.475586,497.995483 
	C284.645477,498.003357 171.815353,498.002808 58.985229,498.001953 
	C49.874584,498.001862 48.190910,496.336670 48.189350,487.290741 
	C48.184494,459.124878 48.197365,430.959015 48.179050,402.793152 
	C48.174644,396.012848 46.968067,394.464722 40.238876,392.466492 
	C40.238876,386.247864 40.238876,379.951324 40.238876,373.625366 
	C47.702953,370.577454 48.185493,369.860565 48.185787,361.503296 
	C48.188454,285.838776 48.187450,210.174271 48.187553,134.509766 
	C48.187572,122.082771 49.016293,121.267120 61.595528,121.332115 
	C62.428272,121.336418 63.260841,121.375771 64.527542,121.953598 
	C64.970245,124.840691 64.986427,127.172989 64.986473,129.505295 
	C64.988609,241.627014 65.071030,353.748932 64.807274,465.870026 
	C64.789604,473.380310 71.493805,481.025787 79.416267,480.982117 
	C81.082176,480.972931 82.748215,480.991974 84.414192,480.991974 
	C188.872314,480.992554 293.330475,481.019135 397.788483,480.904846 
	C402.427887,480.899780 404.724854,481.949890 404.033813,486.956329 
	C403.536133,490.562347 403.311005,494.206024 402.964264,497.832886 
z"/>
<path fill="#E4A32E" opacity="1.000000" stroke="none" 
	d="
M403.430237,497.906616 
	C403.311005,494.206024 403.536133,490.562347 404.033813,486.956329 
	C404.724854,481.949890 402.427887,480.899780 397.788483,480.904846 
	C293.330475,481.019135 188.872314,480.992554 84.414192,480.991974 
	C82.748215,480.991974 81.082176,480.972931 79.416267,480.982117 
	C71.493805,481.025787 64.789604,473.380310 64.807274,465.870026 
	C65.071030,353.748932 64.988609,241.627014 64.986473,129.505295 
	C64.986427,127.172989 64.970245,124.840691 64.949356,122.083260 
	C67.728966,121.523911 70.520813,121.389679 74.088509,121.218155 
	C74.088509,123.722099 74.088509,125.803268 74.088509,127.884430 
	C74.088737,234.320984 74.085281,340.757538 74.094284,447.194092 
	C74.095306,459.192047 79.743515,467.526367 89.952667,470.345795 
	C92.314850,470.998138 94.879547,471.140106 97.351212,471.141022 
	C199.623566,471.178711 301.895935,471.157196 404.168243,471.234558 
	C408.157257,471.237579 411.239807,470.110748 413.836700,467.129333 
	C416.968292,463.534119 420.260040,460.078400 423.482422,456.562286 
	C423.932159,456.837433 424.381866,457.112610 424.831573,457.387756 
	C424.831573,468.944794 425.032074,480.507294 424.716034,492.055664 
	C424.614075,495.781128 421.770691,497.921722 417.887085,497.980530 
	C413.224548,498.051178 408.559937,497.986450 403.430237,497.906616 
z"/>
<path fill="#FBCD63" opacity="1.000000" stroke="none" 
	d="
M445.421448,389.484436 
	C444.980011,288.971130 444.997314,188.596558 444.960846,88.221992 
	C444.959930,85.760521 444.362061,83.299263 444.017761,80.416626 
	C448.479248,79.911812 452.966492,79.729515 457.451782,79.768860 
	C463.549225,79.822342 465.773773,82.077423 465.791199,88.323875 
	C465.843201,106.969109 465.806824,125.614586 465.812683,144.259964 
	C465.815216,152.406418 466.325745,153.164368 473.811768,156.119583 
	C473.811768,163.824432 473.811768,171.610123 473.811768,180.014481 
	C465.875763,180.816040 465.732086,186.609604 465.744080,193.076370 
	C465.861267,256.337250 465.814697,319.598450 465.814697,382.859558 
	C465.814697,384.850098 465.814697,386.840607 465.814697,389.623169 
	C459.029694,389.623169 452.451508,389.623169 445.421448,389.484436 
z"/>
<path fill="#EBBD6A" opacity="1.000000" stroke="none" 
	d="
M418.853394,440.885132 
	C417.320984,442.335175 416.043518,443.533600 414.093445,445.363037 
	C414.093445,433.245697 413.952026,422.010925 414.176300,410.783478 
	C414.247101,407.239746 416.623749,404.848907 420.323853,404.806732 
	C431.416351,404.680267 442.511169,404.761230 455.316406,404.761230 
	C442.567230,417.392181 430.837769,429.012848 418.853394,440.885132 
z"/>
<path fill="#E07E84" opacity="1.000000" stroke="none" 
	d="
M356.988983,43.807713 
	C349.813416,41.852177 345.913818,37.283829 345.720642,30.606922 
	C345.526306,23.889297 349.035400,19.163124 356.643951,16.918737 
	C363.277313,26.130207 362.288727,34.984077 356.988983,43.807713 
z"/>
<path fill="#D8626C" opacity="1.000000" stroke="none" 
	d="
M357.408966,43.920601 
	C362.288727,34.984077 363.277313,26.130207 357.020325,16.876469 
	C362.913849,15.014075 367.642578,17.276867 371.147400,22.027952 
	C374.594696,26.701107 374.872131,31.893734 371.989014,36.964237 
	C368.899292,42.398094 364.065155,44.713326 357.408966,43.920601 
z"/>
<path fill="#060502" opacity="1.000000" stroke="none" 
	d="
M275.999878,191.766327 
	C233.014374,191.766327 190.528885,191.773438 148.043427,191.743881 
	C146.064026,191.742493 144.000717,191.708984 142.123474,191.174362 
	C138.455948,190.129883 136.692627,187.403870 136.969559,183.627197 
	C137.246384,179.851700 139.402863,177.506042 143.169846,176.912292 
	C144.800980,176.655182 146.492737,176.741592 148.156967,176.741470 
	C234.294189,176.734818 320.431396,176.734879 406.568634,176.736954 
	C414.404358,176.737137 417.873505,178.946411 417.993927,183.984070 
	C418.119690,189.243790 414.393646,191.764404 406.455444,191.764908 
	C363.136932,191.767609 319.818390,191.766266 275.999878,191.766327 
z"/>
<path fill="#030301" opacity="1.000000" stroke="none" 
	d="
M278.000061,319.116669 
	C320.651886,319.116669 362.803680,319.116638 404.955505,319.116699 
	C406.121765,319.116699 407.288300,319.100922 408.454224,319.120636 
	C414.618225,319.224976 418.100433,322.070221 417.986237,326.897614 
	C417.876648,331.530884 414.571533,334.121063 408.570343,334.123169 
	C364.752441,334.138367 320.934570,334.131470 277.116669,334.131500 
	C234.131805,334.131531 191.146957,334.132080 148.162094,334.129181 
	C146.663086,334.129059 145.152786,334.205322 143.667252,334.054291 
	C139.869019,333.668091 137.536591,331.481964 137.026901,327.752625 
	C136.483276,323.774872 138.269409,320.869476 142.132797,319.700897 
	C143.992508,319.138428 146.067841,319.140228 148.045715,319.138916 
	C191.197144,319.110077 234.348587,319.116791 278.000061,319.116669 
z"/>
<path fill="#010101" opacity="1.000000" stroke="none" 
	d="
M227.000000,262.966461 
	C200.343048,262.966461 174.186081,262.967621 148.029129,262.963470 
	C146.530396,262.963257 144.993530,263.126007 143.540176,262.857269 
	C139.448990,262.100800 136.908096,259.696655 136.970352,255.370422 
	C137.032150,251.077545 139.524719,248.661133 143.692459,248.048309 
	C145.162323,247.832153 146.685883,247.965485 148.184921,247.965439 
	C234.319595,247.962936 320.454285,247.962753 406.588959,247.963959 
	C414.376068,247.964066 417.871704,250.213181 417.984833,255.278946 
	C418.101776,260.516388 414.424347,262.966034 406.433502,262.966125 
	C346.789001,262.966766 287.144501,262.966461 227.000000,262.966461 
z"/>
</svg>